<?xml version="1.0" encoding="utf-8"?>
<!-- Generator: Adobe Illustrator 24.1.2, SVG Export Plug-In . SVG Version: 6.00 Build 0)  -->
<svg version="1.1" id="Layer_1" xmlns="http://www.w3.org/2000/svg" xmlns:xlink="http://www.w3.org/1999/xlink" x="0px" y="0px"
	 viewBox="0 0 1631 472" style="enable-background:new 0 0 1631 472;" xml:space="preserve">
<style type="text/css">
	.st0{fill:#312E80;}
	.st1{fill:none;stroke:#312E80;stroke-width:10;stroke-miterlimit:10;}
	.st2{font-family:'OCRAExtended';}
	.st3{font-size:166.5807px;}
</style>
<g>
	<path class="st0" d="M584,306.6h31.2V186.9h-30.7c-2.8,0-5.2-1-7.2-3c-2-2-3-4.4-3-7.2c0-2.8,1-5.2,3-7.2c2-2,4.4-3,7.2-3h51v140.1
		h20.3v-42.3c0-2.7,1-5.1,3-7.1c2-2,4.4-3,7.2-3c2.8,0,5.2,1,7.2,3c2,2,3,4.4,3,7.2v52.5c0,2.8-1,5.2-3,7.2c-2,2-4.4,3-7.2,3H584
		c-2.8,0-5.2-1-7.2-3.1c-2-2.1-3-4.5-3-7.3c0-2.7,1-5.1,3-7C578.8,307.6,581.2,306.6,584,306.6z"/>
	<path class="st0" d="M723.6,307.4V185.9c0-5.3,1.9-9.9,5.8-13.8c3.9-3.9,8.5-5.8,13.8-5.8h63.3c5.2,0,9.8,1.9,13.6,5.8
		c3.8,3.9,5.7,8.5,5.7,13.8v121.5c0,5.4-1.9,10-5.7,13.8c-3.8,3.8-8.4,5.7-13.8,5.7h-63.1c-5.5,0-10.1-1.9-13.9-5.7
		C725.5,317.4,723.6,312.8,723.6,307.4z M805.8,306.6V186.9h-61.9v119.8H805.8z"/>
	<path class="st0" d="M873.1,307.4V185.9c0-5.3,1.9-9.9,5.8-13.8c3.9-3.9,8.5-5.8,13.8-5.8h63.3c5.2,0,9.8,1.9,13.6,5.8
		c3.8,3.9,5.7,8.5,5.7,13.8v121.5c0,5.4-1.9,10-5.7,13.8c-3.8,3.8-8.4,5.7-13.8,5.7h-63.1c-5.5,0-10.1-1.9-13.9-5.7
		C875,317.4,873.1,312.8,873.1,307.4z M955.3,306.6V186.9h-61.9v119.8H955.3z"/>
	<path class="st0" d="M1033.1,166.6h40.1c5.2,0.1,10.3,1.8,15.3,5.1c5,3.3,8.6,7.3,10.9,12l20.1,40.6c3.8,7.3,5.7,15,5.7,23
		c0,7.4-2,15-6,22.8l-20.2,40.1c-2.6,5.2-6.3,9.3-11.1,12.4c-4.8,3.1-10.2,4.7-16.2,4.7h-38.8c-2.8,0-5.2-1-7.2-3c-2-2-3-4.4-3-7.1
		c0-2.8,1-5.3,3-7.3c2-2.1,4.4-3.1,7.2-3.1h10.6V187.1h-10.4c-2.8,0-5.2-1-7.2-3.1c-2-2.1-3-4.5-3-7.3c0-2.7,1-5.1,3-7.1
		C1027.8,167.6,1030.2,166.6,1033.1,166.6z M1063.8,187.1v119.8l7.1,0c4.5,0,7.9-2.2,10.1-6.6l20.1-39.9c2.5-5.2,3.8-9.6,3.8-13.2
		c0-4.4-1-8.6-3-12.6l-20.8-41.3c-2.2-4.1-5.7-6.2-10.6-6.2H1063.8z"/>
	<path class="st0" d="M1274.9,248.7v24.5c0,2.7-1,5.1-3,7.1c-2,2-4.4,3-7.1,3H1193v5.9c0,3.5,1.5,6.4,4.5,8.8l5.9,5
		c3.2,2.5,6.3,3.7,9.2,3.7h52.2c2.7,0,5.1,1,7.1,3c2,2,3,4.4,3,7.2c0,2.7-1,5.1-3.1,7.1c-2.1,2-4.4,3-7.1,3h-53.5
		c-3.5,0-7.3-0.7-11.2-2.2c-3.9-1.5-6.8-3-8.6-4.7l-9.1-8c-2.8-2.3-5.2-5.4-7.1-9.4c-1.9-4-2.8-7.7-2.8-11.1v-46.5
		c0-2.7,1-6.2,3.1-10.8c2.1-4.5,4.7-8,7.8-10.5l8.5-6.6c5.6-4.5,11.7-6.8,18.5-6.8h28.5c7.2,0,13.9,3,20.3,8.9l7.6,7.3
		C1272.2,231.7,1274.9,239,1274.9,248.7z M1193.2,247.2v15.7h61.6v-14.1c0-3.8-1.2-6.7-3.5-8.7l-5.9-5.2c-3.1-2.5-5.8-3.7-8.2-3.7
		h-25.5c-3.1,0-6,1.1-8.6,3.3l-5.9,5C1194.5,241.3,1193.2,244,1193.2,247.2z"/>
	<path class="st0" d="M1424.6,220.7V240l-35.2,80c-2.3,4.7-5.2,7.1-8.9,7.1h-13.1c-4.8,0-8.2-2.5-10.4-7.4l-35-79.5v-19.6
		c0-2.8,1-5.2,3-7.2c2-2,4.4-3,7.2-3c2.8,0,5.2,1,7.2,3c2,2,3,4.4,3,7.2l0.1,15.6l30.9,69.7l30.8-69.9l0-15.3c0-2.8,1-5.2,3-7.2
		c2-2,4.5-3,7.4-3c2.8,0,5.2,1,7.2,3C1423.6,215.5,1424.6,217.9,1424.6,220.7z"/>
	<path class="st0" d="M1500.1,210.6h46.5c7.3,0,13.7,2.2,19.2,6.5c5.6,4.3,8.3,8.5,8.3,12.6c0,2.9-1,5.3-3.1,7.1
		c-2.1,1.9-4.3,2.8-6.8,2.8c-3.2,0-6.2-1.5-8.8-4.4s-5.4-4.4-8.3-4.4h-45.9c-4.5,0-6.8,1.9-6.8,5.6c0,2.6,1.5,4.6,4.5,6l54,24
		c5.5,2.4,10,6.3,13.5,11.7c3.5,5.4,5.3,11.3,5.3,17.8c0,8.7-3.1,16.1-9.2,22.1c-6.2,6-13.2,9.1-21,9.1h-41.1
		c-7.1,0-13.7-2.1-19.8-6.4c-6.1-4.3-9.1-8.4-9.1-12.4c0-2.7,1-5,3-7.1c2-2.1,4.5-3.1,7.7-3.1c2.6,0,5.3,1.5,8.3,4.4
		c2.9,2.9,7.2,4.4,12.8,4.4h37.8c3,0,5.5-1.1,7.5-3.4c2-2.3,3-4.9,3-7.9c0-4.6-2.3-7.9-6.8-9.9l-54.5-24.5
		c-5.2-2.3-9.3-5.7-12.1-10.2c-2.8-4.4-4.2-8.9-4.2-13.5c0-7.3,2.5-13.5,7.6-18.9C1486.5,213.2,1492.7,210.6,1500.1,210.6z"/>
</g>
<path id="path1425" class="st1" d="M440.4,351.2L240.9,466.3L41.4,351.2V120.8L240.9,5.7l199.5,115.2V351.2z"/>
<text transform="matrix(1 0 0 1 106.9058 292.0952)" class="st0 st2 st3">&lt;/&gt;</text>
</svg>
